<?xml version="1.0" encoding="iso-8859-1"?>
<!-- Generator: Adobe Illustrator 16.0.0, SVG Export Plug-In . SVG Version: 6.00 Build 0)  -->
<!DOCTYPE svg PUBLIC "-//W3C//DTD SVG 1.1//EN" "http://www.w3.org/Graphics/SVG/1.1/DTD/svg11.dtd">
<svg version="1.1" id="Capa_1" xmlns="http://www.w3.org/2000/svg" xmlns:xlink="http://www.w3.org/1999/xlink" x="0px" y="0px"
	 width="442.801px" height="442.801px" viewBox="0 0 442.801 442.801" style="enable-background:new 0 0 442.801 442.801;"
	 xml:space="preserve">
<g>
	<g>
		<rect x="103.568" y="139.623" width="21.601" height="188.998"/>
		<polygon points="171.068,328.62 192.668,328.62 192.668,318.685 192.668,170.585 192.668,139.623 171.068,139.623 		"/>
		<polygon points="130.568,339.42 103.568,339.42 103.568,357.181 192.668,357.181 192.668,339.42 165.668,339.42 		"/>
		<rect x="135.968" y="139.623" width="24.3" height="188.998"/>
		<path d="M319.033,227.665c-1.846-7.907-4.968-15.44-9.292-22.383c-1.328-2.133-1.018-4.899,0.771-6.676l10.589-10.583
			l-18.109-18.102l-10.589,10.584c-1.782,1.782-4.535,2.091-6.665,0.768c-6.94-4.324-14.481-7.446-22.392-9.287
			c-2.446-0.566-4.166-2.75-4.166-5.26v-14.958h-25.597v14.958c0,2.51-1.72,4.693-4.166,5.26c-7.91,1.841-15.425,4.963-22.386,9.287
			c-1.083,0.675-2.336,0.92-3.546,0.772V307.23c1.221-0.147,2.463,0.101,3.546,0.781c6.951,4.329,14.486,7.451,22.386,9.297
			c2.446,0.564,4.166,2.758,4.166,5.268v14.95h25.597v-14.95c0-2.51,1.72-4.693,4.166-5.268c7.91-1.846,15.436-4.957,22.392-9.297
			c2.141-1.318,4.883-1.013,6.665,0.78l10.589,10.589l18.109-18.114l-10.589-10.584c-1.782-1.777-2.099-4.54-0.771-6.671
			c4.324-6.935,7.446-14.48,9.292-22.386c0.569-2.446,2.753-4.171,5.273-4.171h14.961v-25.592h-14.961
			C321.775,231.842,319.602,230.112,319.033,227.665z M246.375,283.521c-21.441,0-38.886-17.434-38.886-38.887
			c0-21.441,17.445-38.883,38.886-38.883c21.452,0,38.887,17.442,38.887,38.883C285.262,266.077,267.817,283.521,246.375,283.521z"
			/>
		<path d="M221.401,0C99.333,0,0,99.323,0,221.4c0,122.08,99.328,221.4,221.4,221.4c122.08,0,221.399-99.32,221.399-221.4
			C442.8,99.323,343.481,0,221.401,0z M350.046,262.839c0,2.975-2.41,5.4-5.4,5.4h-16.174c-1.771,6.17-4.239,12.107-7.372,17.745
			l11.454,11.453c1.013,1.019,1.582,2.39,1.582,3.818c0,1.43-0.56,2.811-1.582,3.818l-25.745,25.739
			c-2.025,2.025-5.611,2.025-7.636,0l-11.443-11.454c-5.643,3.133-11.591,5.601-17.751,7.373v16.173c0,2.979-2.415,5.4-5.399,5.4
			h-36.397c-2.984,0-5.4-2.421-5.4-5.4v-16.173c-6.172-1.772-12.1-4.24-17.737-7.373l-1.566,1.572v41.66
			c0,2.989-2.416,5.399-5.4,5.399h-99.9c-2.993,0-5.4-2.41-5.4-5.399V134.228c0-0.706,0.145-1.387,0.403-2.03
			c0.113-0.258,0.298-0.458,0.438-0.696c0.19-0.319,0.34-0.665,0.588-0.941l49.95-54c2.049-2.207,5.888-2.207,7.934,0l49.95,54
			c0.253,0.277,0.393,0.623,0.583,0.936c0.14,0.237,0.335,0.443,0.438,0.701c0.259,0.644,0.411,1.329,0.411,2.03v34.127l1.566,1.566
			c5.638-3.124,11.583-5.592,17.737-7.364v-16.179c0-2.979,2.415-5.4,5.4-5.4h36.396c2.985,0,5.4,2.421,5.4,5.4v16.184
			c6.175,1.772,12.103,4.24,17.75,7.364l11.449-11.451c2.114-2.112,5.516-2.112,7.636,0l25.739,25.737
			c1.019,1.013,1.582,2.387,1.582,3.815c0,1.432-0.563,2.808-1.582,3.818l-11.464,11.448c3.132,5.638,5.601,11.583,7.372,17.75
			h16.174c2.99,0,5.399,2.417,5.399,5.397L350.046,262.839L350.046,262.839z"/>
		<polygon points="165.668,128.822 185.718,128.822 163.303,104.594 132.923,104.594 110.511,128.822 130.568,128.822 		"/>
		<path d="M246.375,216.552c-15.482,0-28.086,12.601-28.086,28.083c0,15.488,12.604,28.087,28.086,28.087
			s28.086-12.599,28.086-28.087C274.461,229.152,261.869,216.552,246.375,216.552z"/>
		<polygon points="148.118,88.172 142.911,93.794 153.318,93.794 		"/>
	</g>
</g>
<g>
</g>
<g>
</g>
<g>
</g>
<g>
</g>
<g>
</g>
<g>
</g>
<g>
</g>
<g>
</g>
<g>
</g>
<g>
</g>
<g>
</g>
<g>
</g>
<g>
</g>
<g>
</g>
<g>
</g>
</svg>
